<?xml version="1.0" encoding="UTF-8"?>
<svg xmlns="http://www.w3.org/2000/svg" xmlns:xlink="http://www.w3.org/1999/xlink" width="360" height="260" viewBox="0 0 360 260">
<path fill="none" stroke-width="1" stroke-linecap="butt" stroke-linejoin="miter" stroke="rgb(100%, 100%, 100%)" stroke-opacity="1" stroke-miterlimit="10" d="M 87.871094 200.8125 C 87.871094 208.347656 87.023438 214.433594 85.328125 219.066406 C 83.632812 223.703125 81.222656 227.300781 78.09375 229.863281 C 74.96875 232.425781 71.21875 234.140625 66.847656 235.007812 C 62.476562 235.871094 57.613281 236.304688 52.265625 236.304688 C 45.027344 236.304688 39.488281 235.175781 35.648438 232.914062 C 31.804688 230.652344 29.882812 227.941406 29.882812 224.773438 C 29.882812 222.136719 30.953125 219.914062 33.101562 218.105469 C 35.25 216.296875 38.132812 215.394531 41.75 215.394531 C 44.464844 215.394531 46.632812 216.128906 48.25 217.597656 C 49.871094 219.066406 51.210938 220.519531 52.265625 221.949219 C 53.46875 223.53125 54.488281 224.585938 55.316406 225.113281 C 56.144531 225.640625 56.898438 225.90625 57.578125 225.90625 C 59.007812 225.90625 60.101562 225.058594 60.855469 223.363281 C 61.609375 221.667969 61.984375 218.371094 61.984375 213.472656 L 61.984375 120.550781 L 87.871094 113.429688 Z M 124.738281 115.914062 L 124.738281 175.714844 C 124.738281 177.375 125.058594 178.9375 125.699219 180.40625 C 126.339844 181.875 127.226562 183.140625 128.355469 184.195312 C 129.488281 185.25 130.804688 186.097656 132.3125 186.738281 C 133.820312 187.378906 135.441406 187.699219 137.175781 187.699219 C 139.132812 187.699219 141.359375 186.601562 144.070312 184.703125 C 148.363281 181.695312 150.964844 179.628906 150.964844 177.183594 L 150.964844 115.914062 L 176.738281 115.914062 L 176.738281 200.8125 L 150.964844 200.8125 L 150.964844 192.898438 C 147.574219 195.761719 143.957031 198.058594 140.113281 199.792969 C 136.269531 201.527344 132.539062 202.394531 128.921875 202.394531 C 124.703125 202.394531 120.78125 201.695312 117.164062 200.300781 C 113.546875 198.90625 110.382812 197.003906 107.671875 194.59375 C 104.957031 192.183594 102.828125 189.355469 101.28125 186.113281 C 99.738281 182.875 98.964844 179.40625 98.964844 175.714844 L 98.964844 115.914062 Z M 212.882812 200.8125 L 187.222656 200.8125 L 187.222656 81.777344 L 212.882812 74.65625 Z M 223.601562 120.550781 L 249.375 113.429688 L 249.375 200.8125 L 223.601562 200.8125 Z M 303.226562 156.949219 C 300.738281 158.007812 298.230469 159.230469 295.707031 160.625 C 293.183594 162.019531 290.882812 163.546875 288.8125 165.203125 C 286.738281 166.859375 285.0625 168.632812 283.78125 170.515625 C 282.5 172.398438 281.859375 174.359375 281.859375 176.394531 C 281.859375 177.976562 282.066406 179.503906 282.480469 180.972656 C 282.894531 182.441406 283.480469 183.703125 284.234375 184.757812 C 284.988281 185.8125 285.816406 186.660156 286.722656 187.300781 C 287.625 187.941406 288.605469 188.261719 289.660156 188.261719 C 291.769531 188.261719 293.898438 187.621094 296.046875 186.339844 C 298.195312 185.058594 300.585938 183.441406 303.226562 181.480469 Z M 329.109375 200.8125 L 303.226562 200.8125 L 303.226562 194.027344 C 301.792969 195.234375 300.398438 196.347656 299.042969 197.363281 C 297.6875 198.378906 296.160156 199.265625 294.464844 200.019531 C 292.769531 200.773438 290.867188 201.355469 288.753906 201.773438 C 286.644531 202.1875 284.15625 202.394531 281.296875 202.394531 C 277.375 202.394531 273.851562 201.828125 270.726562 200.699219 C 267.597656 199.566406 264.941406 198.023438 262.757812 196.0625 C 260.570312 194.105469 258.894531 191.785156 257.726562 189.109375 C 256.558594 186.4375 255.972656 183.515625 255.972656 180.351562 C 255.972656 177.109375 256.59375 174.171875 257.839844 171.53125 C 259.082031 168.894531 260.777344 166.523438 262.925781 164.410156 C 265.074219 162.300781 267.578125 160.417969 270.441406 158.757812 C 273.304688 157.101562 276.378906 155.574219 279.65625 154.179688 C 282.933594 152.785156 286.34375 151.507812 289.886719 150.339844 C 293.425781 149.171875 296.933594 148.058594 300.398438 147.003906 L 303.226562 146.324219 L 303.226562 137.960938 C 303.226562 132.535156 302.1875 128.691406 300.117188 126.429688 C 298.042969 124.167969 295.273438 123.039062 291.808594 123.039062 C 287.738281 123.039062 284.910156 124.019531 283.328125 125.976562 C 281.746094 127.9375 280.953125 130.308594 280.953125 133.097656 C 280.953125 134.679688 280.785156 136.226562 280.445312 137.734375 C 280.109375 139.242188 279.523438 140.558594 278.695312 141.691406 C 277.867188 142.820312 276.679688 143.726562 275.132812 144.402344 C 273.589844 145.082031 271.648438 145.421875 269.3125 145.421875 C 265.695312 145.421875 262.757812 144.382812 260.496094 142.3125 C 258.234375 140.238281 257.105469 137.621094 257.105469 134.453125 C 257.105469 131.515625 258.101562 128.785156 260.097656 126.261719 C 262.097656 123.734375 264.789062 121.566406 268.183594 119.761719 C 271.574219 117.949219 275.492188 116.519531 279.9375 115.464844 C 284.382812 114.410156 289.09375 113.882812 294.066406 113.882812 C 300.171875 113.882812 305.429688 114.429688 309.839844 115.519531 C 314.246094 116.613281 317.882812 118.175781 320.746094 120.210938 C 323.609375 122.246094 325.71875 124.695312 327.074219 127.558594 C 328.433594 130.421875 329.109375 133.628906 329.109375 137.167969 Z M 92.953125 91.589844 C 92.953125 101.257812 85.117188 109.089844 75.453125 109.089844 C 65.789062 109.089844 57.953125 101.257812 57.953125 91.589844 C 57.953125 81.925781 65.789062 74.089844 75.453125 74.089844 C 85.117188 74.089844 92.953125 81.925781 92.953125 91.589844 Z M 276.300781 55.171875 C 276.300781 64.835938 268.464844 72.671875 258.800781 72.671875 C 249.132812 72.671875 241.300781 64.835938 241.300781 55.171875 C 241.300781 45.507812 249.132812 37.671875 258.800781 37.671875 C 268.464844 37.671875 276.300781 45.507812 276.300781 55.171875 Z M 297.320312 91.589844 C 297.320312 101.257812 289.484375 109.089844 279.820312 109.089844 C 270.15625 109.089844 262.320312 101.257812 262.320312 91.589844 C 262.320312 81.925781 270.15625 74.089844 279.820312 74.089844 C 289.484375 74.089844 297.320312 81.925781 297.320312 91.589844 Z M 255.273438 91.589844 C 255.273438 101.257812 247.4375 109.089844 237.773438 109.089844 C 228.105469 109.089844 220.273438 101.257812 220.273438 91.589844 C 220.273438 81.925781 228.105469 74.089844 237.773438 74.089844 C 247.4375 74.089844 255.273438 81.925781 255.273438 91.589844 Z M 255.273438 91.589844 "/>
<path fill-rule="nonzero" fill="rgb(0%, 0%, 0%)" fill-opacity="1" d="M 87.871094 200.8125 C 87.871094 208.347656 87.023438 214.433594 85.328125 219.066406 C 83.632812 223.703125 81.222656 227.300781 78.09375 229.863281 C 74.96875 232.425781 71.21875 234.140625 66.847656 235.007812 C 62.476562 235.871094 57.613281 236.304688 52.265625 236.304688 C 45.027344 236.304688 39.488281 235.175781 35.648438 232.914062 C 31.804688 230.652344 29.882812 227.941406 29.882812 224.773438 C 29.882812 222.136719 30.953125 219.914062 33.101562 218.105469 C 35.25 216.296875 38.132812 215.394531 41.75 215.394531 C 44.464844 215.394531 46.632812 216.128906 48.25 217.597656 C 49.871094 219.066406 51.210938 220.519531 52.265625 221.949219 C 53.46875 223.53125 54.488281 224.585938 55.316406 225.113281 C 56.144531 225.640625 56.898438 225.90625 57.578125 225.90625 C 59.007812 225.90625 60.101562 225.058594 60.855469 223.363281 C 61.609375 221.667969 61.984375 218.371094 61.984375 213.472656 L 61.984375 120.550781 L 87.871094 113.429688 Z M 124.738281 115.914062 L 124.738281 175.714844 C 124.738281 177.375 125.058594 178.9375 125.699219 180.40625 C 126.339844 181.875 127.226562 183.140625 128.355469 184.195312 C 129.488281 185.25 130.804688 186.097656 132.3125 186.738281 C 133.820312 187.378906 135.441406 187.699219 137.175781 187.699219 C 139.132812 187.699219 141.359375 186.601562 144.070312 184.703125 C 148.363281 181.695312 150.964844 179.628906 150.964844 177.183594 L 150.964844 115.914062 L 176.738281 115.914062 L 176.738281 200.8125 L 150.964844 200.8125 L 150.964844 192.898438 C 147.574219 195.761719 143.957031 198.058594 140.113281 199.792969 C 136.269531 201.527344 132.539062 202.394531 128.921875 202.394531 C 124.703125 202.394531 120.78125 201.695312 117.164062 200.300781 C 113.546875 198.90625 110.382812 197.003906 107.671875 194.59375 C 104.957031 192.183594 102.828125 189.355469 101.28125 186.113281 C 99.738281 182.875 98.964844 179.40625 98.964844 175.714844 L 98.964844 115.914062 Z M 212.882812 200.8125 L 187.222656 200.8125 L 187.222656 81.777344 L 212.882812 74.65625 Z M 223.601562 120.550781 L 249.375 113.429688 L 249.375 200.8125 L 223.601562 200.8125 Z M 303.226562 156.949219 C 300.738281 158.007812 298.230469 159.230469 295.707031 160.625 C 293.183594 162.019531 290.882812 163.546875 288.8125 165.203125 C 286.738281 166.859375 285.0625 168.632812 283.78125 170.515625 C 282.5 172.398438 281.859375 174.359375 281.859375 176.394531 C 281.859375 177.976562 282.066406 179.503906 282.480469 180.972656 C 282.894531 182.441406 283.480469 183.703125 284.234375 184.757812 C 284.988281 185.8125 285.816406 186.660156 286.722656 187.300781 C 287.625 187.941406 288.605469 188.261719 289.660156 188.261719 C 291.769531 188.261719 293.898438 187.621094 296.046875 186.339844 C 298.195312 185.058594 300.585938 183.441406 303.226562 181.480469 Z M 329.109375 200.8125 L 303.226562 200.8125 L 303.226562 194.027344 C 301.792969 195.234375 300.398438 196.347656 299.042969 197.363281 C 297.6875 198.378906 296.160156 199.265625 294.464844 200.019531 C 292.769531 200.773438 290.867188 201.355469 288.753906 201.773438 C 286.644531 202.1875 284.15625 202.394531 281.296875 202.394531 C 277.375 202.394531 273.851562 201.828125 270.726562 200.699219 C 267.597656 199.566406 264.941406 198.023438 262.757812 196.0625 C 260.570312 194.105469 258.894531 191.785156 257.726562 189.109375 C 256.558594 186.4375 255.972656 183.515625 255.972656 180.351562 C 255.972656 177.109375 256.59375 174.171875 257.839844 171.53125 C 259.082031 168.894531 260.777344 166.523438 262.925781 164.410156 C 265.074219 162.300781 267.578125 160.417969 270.441406 158.757812 C 273.304688 157.101562 276.378906 155.574219 279.65625 154.179688 C 282.933594 152.785156 286.34375 151.507812 289.886719 150.339844 C 293.425781 149.171875 296.933594 148.058594 300.398438 147.003906 L 303.226562 146.324219 L 303.226562 137.960938 C 303.226562 132.535156 302.1875 128.691406 300.117188 126.429688 C 298.042969 124.167969 295.273438 123.039062 291.808594 123.039062 C 287.738281 123.039062 284.910156 124.019531 283.328125 125.976562 C 281.746094 127.9375 280.953125 130.308594 280.953125 133.097656 C 280.953125 134.679688 280.785156 136.226562 280.445312 137.734375 C 280.109375 139.242188 279.523438 140.558594 278.695312 141.691406 C 277.867188 142.820312 276.679688 143.726562 275.132812 144.402344 C 273.589844 145.082031 271.648438 145.421875 269.3125 145.421875 C 265.695312 145.421875 262.757812 144.382812 260.496094 142.3125 C 258.234375 140.238281 257.105469 137.621094 257.105469 134.453125 C 257.105469 131.515625 258.101562 128.785156 260.097656 126.261719 C 262.097656 123.734375 264.789062 121.566406 268.183594 119.761719 C 271.574219 117.949219 275.492188 116.519531 279.9375 115.464844 C 284.382812 114.410156 289.09375 113.882812 294.066406 113.882812 C 300.171875 113.882812 305.429688 114.429688 309.839844 115.519531 C 314.246094 116.613281 317.882812 118.175781 320.746094 120.210938 C 323.609375 122.246094 325.71875 124.695312 327.074219 127.558594 C 328.433594 130.421875 329.109375 133.628906 329.109375 137.167969 Z M 329.109375 200.8125 "/>
<path fill-rule="nonzero" fill="rgb(25.1%, 38.8%, 84.7%)" fill-opacity="1" d="M 92.953125 91.589844 C 92.953125 101.257812 85.117188 109.089844 75.453125 109.089844 C 65.789062 109.089844 57.953125 101.257812 57.953125 91.589844 C 57.953125 81.925781 65.789062 74.089844 75.453125 74.089844 C 85.117188 74.089844 92.953125 81.925781 92.953125 91.589844 Z M 92.953125 91.589844 "/>
<path fill-rule="nonzero" fill="rgb(22%, 59.6%, 14.9%)" fill-opacity="1" d="M 276.300781 55.171875 C 276.300781 64.835938 268.464844 72.671875 258.800781 72.671875 C 249.132812 72.671875 241.300781 64.835938 241.300781 55.171875 C 241.300781 45.507812 249.132812 37.671875 258.800781 37.671875 C 268.464844 37.671875 276.300781 45.507812 276.300781 55.171875 Z M 276.300781 55.171875 "/>
<path fill-rule="nonzero" fill="rgb(58.4%, 34.5%, 69.8%)" fill-opacity="1" d="M 297.320312 91.589844 C 297.320312 101.257812 289.484375 109.089844 279.820312 109.089844 C 270.15625 109.089844 262.320312 101.257812 262.320312 91.589844 C 262.320312 81.925781 270.15625 74.089844 279.820312 74.089844 C 289.484375 74.089844 297.320312 81.925781 297.320312 91.589844 Z M 297.320312 91.589844 "/>
<path fill-rule="nonzero" fill="rgb(79.6%, 23.5%, 20%)" fill-opacity="1" d="M 255.273438 91.589844 C 255.273438 101.257812 247.4375 109.089844 237.773438 109.089844 C 228.105469 109.089844 220.273438 101.257812 220.273438 91.589844 C 220.273438 81.925781 228.105469 74.089844 237.773438 74.089844 C 247.4375 74.089844 255.273438 81.925781 255.273438 91.589844 Z M 255.273438 91.589844 "/>
</svg>
